<svg xmlns="http://www.w3.org/2000/svg" xmlns:xlink="http://www.w3.org/1999/xlink" width="500" zoomAndPan="magnify" viewBox="0 0 375 374.999991" height="500" preserveAspectRatio="xMidYMid meet" version="1.0"><rect x="-37.5" width="450" fill="#ffffff" y="-37.499999" height="449.999989" fill-opacity="1"/><rect x="-37.5" width="450" fill="#ffffff" y="-37.499999" height="449.999989" fill-opacity="1"/><path fill="#f16813" d="M 136.601562 0 C 207.410156 0 265.007812 58.234375 265.007812 129.867188 C 265.007812 163.808594 252.171875 195.847656 228.890625 220.097656 C 227.46875 221.59375 225.113281 221.632812 223.617188 220.210938 C 222.117188 218.789062 222.082031 216.390625 223.503906 214.933594 C 245.433594 192.066406 257.523438 161.863281 257.523438 129.902344 C 257.523438 62.425781 203.292969 7.558594 136.640625 7.558594 C 69.984375 7.558594 15.71875 62.460938 15.71875 129.902344 C 15.71875 131.960938 14.035156 133.644531 11.976562 133.644531 C 9.917969 133.644531 8.234375 131.960938 8.234375 129.902344 C 8.195312 58.234375 65.792969 0 136.601562 0 Z M 136.601562 0 " fill-opacity="1" fill-rule="nonzero"/><path fill="#f16813" d="M 48.464844 215.230469 C 49.4375 215.230469 50.410156 215.605469 51.121094 216.355469 C 73.914062 239.445312 104.265625 252.171875 136.601562 252.171875 C 154.789062 252.171875 172.269531 248.167969 188.585938 240.308594 C 190.457031 239.410156 192.703125 240.195312 193.601562 242.066406 C 194.5 243.9375 193.710938 246.183594 191.839844 247.082031 C 174.511719 255.464844 155.914062 259.691406 136.601562 259.691406 C 102.246094 259.691406 70.023438 246.183594 45.808594 221.632812 C 44.347656 220.171875 44.386719 217.777344 45.847656 216.355469 C 46.558594 215.570312 47.53125 215.230469 48.464844 215.230469 Z M 48.464844 215.230469 " fill-opacity="1" fill-rule="nonzero"/><path fill="#f16813" d="M 11.976562 126.085938 L 136.601562 126.085938 C 138.660156 126.085938 140.34375 127.769531 140.34375 129.828125 C 140.34375 131.886719 138.660156 133.570312 136.601562 133.570312 L 11.976562 133.570312 C 9.917969 133.570312 8.234375 131.886719 8.234375 129.828125 C 8.234375 127.769531 9.917969 126.085938 11.976562 126.085938 Z M 11.976562 126.085938 " fill-opacity="1" fill-rule="nonzero"/><path fill="#f16813" d="M 136.9375 126.421875 C 138.359375 126.421875 139.671875 127.207031 140.308594 128.59375 L 249.8125 361.863281 L 359.28125 128.59375 C 360.179688 126.722656 362.386719 125.898438 364.257812 126.796875 C 366.128906 127.65625 366.953125 129.902344 366.054688 131.773438 L 253.179688 372.304688 C 251.945312 374.925781 247.640625 374.925781 246.40625 372.304688 L 133.53125 131.773438 C 132.632812 129.902344 133.457031 127.65625 135.328125 126.796875 C 135.851562 126.535156 136.414062 126.421875 136.9375 126.421875 Z M 136.9375 126.421875 " fill-opacity="1" fill-rule="nonzero"/></svg>